PathFileType	4	(X/Y/Z)	/Users/itak/Documents/Research/Walk-IL/dataset/trc/00548_00009.trc
DataRate	CameraRate	NumFrames	NumMarkers	Units	OrigDataRate	OrigDataStartFrame	OrigNumFrames
100.000000	100.000000	4	53	mm	100.000000	171	457
Frame#	Time	RPSI			LPSI			L3			STRN			T10			C7			CLAV			RBAK			LBAK			LSHO			LUPA			LAEL			LAOL			LWTS			LWPS			LFRA			LHPS			LHTS			RSHO			RUPA			RAEL			RAOL			RWTS			RWPS			RFRA			RIFD			RHTS			RHPS			RBHD			LFHD			RFHD			LBHD			LHIP			RHIP			RASI			LASI			LKNE			LTHI			LANK			LTIP			LTOE			LMT1			LMT5			LHEE			RKNE			RTHI			RANK			RTIP			RTOE			RMT1			RMT5			RHEE			LIFD			
		X1	Y1	Z1	X2	Y2	Z2	X3	Y3	Z3	X4	Y4	Z4	X5	Y5	Z5	X6	Y6	Z6	X7	Y7	Z7	X8	Y8	Z8	X9	Y9	Z9	X10	Y10	Z10	X11	Y11	Z11	X12	Y12	Z12	X13	Y13	Z13	X14	Y14	Z14	X15	Y15	Z15	X16	Y16	Z16	X17	Y17	Z17	X18	Y18	Z18	X19	Y19	Z19	X20	Y20	Z20	X21	Y21	Z21	X22	Y22	Z22	X23	Y23	Z23	X24	Y24	Z24	X25	Y25	Z25	X26	Y26	Z26	X27	Y27	Z27	X28	Y28	Z28	X29	Y29	Z29	X30	Y30	Z30	X31	Y31	Z31	X32	Y32	Z32	X33	Y33	Z33	X34	Y34	Z34	X35	Y35	Z35	X36	Y36	Z36	X37	Y37	Z37	X38	Y38	Z38	X39	Y39	Z39	X40	Y40	Z40	X41	Y41	Z41	X42	Y42	Z42	X43	Y43	Z43	X44	Y44	Z44	X45	Y45	Z45	X46	Y46	Z46	X47	Y47	Z47	X48	Y48	Z48	X49	Y49	Z49	X50	Y50	Z50	X51	Y51	Z51	X52	Y52	Z52	X53	Y53	Z53	

172	1.71	-565.3507080078125	1003.580017089844	320.6017456054688	-562.9715576171875	1001.980529785156	186.9552154541016	-556.4924926757812	1100.016479492188	244.9606628417969	-315.5359497070312	1278.805541992188	251.6778564453125	-560.2490234375	1224.549560546875	242.6421356201172	-503.3533630371094	1495.0498046875	268.9814758300781	-330.9832763671875	1390.70458984375	258.4966125488281	-580.7759399414062	1368.915893554688	346.1416931152344	-535.7255249023438	1448.570190429688	173.3906097412109	-433.4868774414062	1477.669067382812	98.06533050537109	-446.5500793457031	1357.43017578125	9.09550666809082	-440.4680480957031	1137.471801757812	-22.90826416015625	-528.4111938476562	1129.042846679688	26.67562866210938	-340.9490966796875	897.634521484375	14.47696590423584	-386.7758178710938	874.7218017578125	-57.47407150268555	-417.1015930175781	1052.569213867188	-33.09025573730469	-375.0667724609375	815.3485717773438	-50.37378692626953	-322.2089233398438	821.54638671875	-7.323247909545898	-450.546630859375	1448.760620117188	423.1262817382812	-475.0205078125	1383.35595703125	487.87158203125	-494.2330322265625	1094.879760742188	526.175048828125	-547.0164794921875	1077.681884765625	495.6966552734375	-358.6415710449219	874.206787109375	488.2149353027344	-407.1484985351562	851.5615234375	551.3909301757812	-483.1047973632812	1039.3798828125	533.46435546875	-345.3114929199219	700.4323120117188	491.3110046386719	-331.2485656738281	782.6121215820312	502.0851440429688	-388.7764282226562	776.6356201171875	547.10009765625	-426.1037902832031	1665.056762695312	347.6918640136719	-271.6788635253906	1699.866577148438	213.1189422607422	-288.2219848632812	1689.98095703125	356.2062377929688	-400.1809692382812	1675.06640625	184.1718292236328	-439.2428894042969	917.7791137695312	58.07944107055664	-434.9414672851562	935.8518676757812	439.4851684570312	-351.2785949707031	966.4490356445312	378.5538330078125	-359.6538391113281	943.4578857421875	103.9418258666992	-419.0148010253906	464.9696960449219	88.52723693847656	-413.3313598632812	636.9909057617188	68.07859802246094	-815.0123291015625	167.0151214599609	100.9741973876953	-631.942138671875	317.9079284667969	87.22663116455078	-691.6190795898438	31.74355125427246	201.1145477294922	-734.6253662109375	90.80124664306641	218.7626037597656	-750.9758911132812	65.57247161865234	117.4361190795898	-845.3744506835938	238.724609375	138.2070922851562	-322.9697875976562	502.8558349609375	367.6649780273438	-371.5602722167969	786.0267944335938	431.5408935546875	-401.4931335449219	36.50439834594727	331.682861328125	-314.6264038085938	356.5776062011719	347.2033081054688	-180.0589904785156	41.05785369873047	293.5948181152344	-243.3223571777344	41.07928085327148	251.0388336181641	-268.6434936523438	39.47943496704102	353.2243347167969	-454.7099304199219	31.25352668762207	274.5346374511719	-336.7443237304688	727.1173706054688	3.880377054214478	
173	1.72	-558.2294311523438	1004.363403320312	321.5484924316406	-556.21533203125	1002.422424316406	187.8777465820312	-549.3427124023438	1100.8720703125	246.1385650634766	-308.1708679199219	1279.57763671875	251.9351959228516	-552.971923828125	1225.451538085938	244.0166778564453	-495.8402404785156	1495.903076171875	270.2899169921875	-323.6073913574219	1391.455810546875	258.8118286132812	-572.9564819335938	1369.749145507812	347.8224792480469	-528.72265625	1449.474853515625	174.9088592529297	-426.900634765625	1478.548217773438	98.98512268066406	-440.9696960449219	1358.312744140625	10.17569160461426	-436.0198364257812	1138.302001953125	-21.89562034606934	-523.4683227539062	1130.283203125	28.60500717163086	-337.734375	897.7542724609375	14.46103763580322	-384.4725952148438	875.1070556640625	-57.03181838989258	-413.2575988769531	1053.22802734375	-32.33335113525391	-372.985595703125	815.7396240234375	-50.08158111572266	-319.6809997558594	821.5660400390625	-7.564328193664551	-442.2527770996094	1449.468994140625	424.0870361328125	-466.2572937011719	1384.0869140625	489.0320739746094	-483.9971618652344	1095.548828125	527.8530883789062	-536.7166137695312	1078.008666992188	497.5870361328125	-347.4143676757812	875.840576171875	488.6854553222656	-395.1722717285156	852.8480834960938	552.1755981445312	-472.6706848144531	1039.9052734375	534.9371337890625	-332.5550842285156	702.2059936523438	491.62353515625	-319.0824584960938	784.4842529296875	502.2897033691406	-376.2821044921875	778.0723876953125	547.7467041015625	-418.6375427246094	1665.768676757812	348.5872192382812	-264.1935729980469	1700.780517578125	214.1130981445312	-280.7386169433594	1690.734985351562	357.1544799804688	-392.713134765625	1675.967163085938	185.1196441650391	-432.3448181152344	918.5097045898438	58.90920257568359	-427.8201599121094	936.36279296875	440.4480895996094	-344.2253112792969	966.84912109375	379.3804626464844	-352.5604858398438	944.7069702148438	104.6814041137695	-401.756591796875	465.9460144042969	87.56864929199219	-400.2995300292969	638.1678466796875	67.72394561767578	-801.304931640625	173.012939453125	98.79171752929688	-615.458984375	320.6105041503906	85.67724609375	-679.9044189453125	33.09029006958008	196.8685302734375	-721.6537475585938	94.29299926757812	215.5785064697266	-739.5911254882812	70.05165863037109	114.3353424072266	-830.0662231445312	245.1768493652344	136.2626342773438	-320.1233825683594	502.3470153808594	368.0345153808594	-365.5872192382812	786.0772094726562	432.0067138671875	-401.54736328125	36.51747894287109	331.73193359375	-312.8304748535156	356.0854797363281	347.4602355957031	-180.1253662109375	41.04190826416016	293.5470581054688	-243.2792816162109	41.09425354003906	250.9528198242188	-268.6685485839844	39.484375	353.2061462402344	-454.6752014160156	31.1701602935791	274.4630432128906	-334.6629028320312	727.2344360351562	3.75582218170166	
174	1.73	-551.2137451171875	1005.0888671875	322.427978515625	-549.52392578125	1002.852478027344	188.7333374023438	-542.2883911132812	1101.710083007812	247.3006591796875	-300.9071350097656	1280.33154296875	252.1250457763672	-545.7939453125	1226.343627929688	245.3838043212891	-488.3817749023438	1496.741577148438	271.5545654296875	-316.3114929199219	1392.180908203125	259.049072265625	-565.18896484375	1370.5947265625	349.4897155761719	-521.8055419921875	1450.356567382812	176.4037628173828	-420.4240112304688	1479.3662109375	99.85231018066406	-435.5198059082031	1359.124389648438	11.23274803161621	-431.6120910644531	1139.041870117188	-20.87680435180664	-518.5414428710938	1131.426513671875	30.57769966125488	-334.5220336914062	897.8187866210938	14.4229040145874	-382.1420593261719	875.4705200195312	-56.58210372924805	-409.4483032226562	1053.821533203125	-31.56661796569824	-370.9073791503906	816.0881958007812	-49.78734588623047	-317.1588439941406	821.548583984375	-7.840428829193115	-433.9757080078125	1450.190795898438	424.9866638183594	-457.4939880371094	1384.835205078125	490.1378173828125	-473.7450561523438	1096.188598632812	529.4461059570312	-526.4160766601562	1078.373657226562	499.4467163085938	-336.2596740722656	877.4210815429688	489.1513061523438	-383.2413940429688	854.1388549804688	552.9522705078125	-462.2565612792969	1040.441284179688	536.3289184570312	-319.9997863769531	703.9266967773438	491.9651184082031	-307.0636291503906	786.2854614257812	502.4939880371094	-363.9841613769531	779.5494995117188	548.3886108398438	-411.151123046875	1666.469360351562	349.3919982910156	-256.6829223632812	1701.619750976562	215.0179748535156	-273.2379150390625	1691.428100585938	358.0071411132812	-385.224853515625	1676.836547851562	185.9783020019531	-425.3958129882812	919.3073120117188	59.62270355224609	-420.7625732421875	936.8289794921875	441.3329162597656	-337.2760009765625	967.2218017578125	380.1800842285156	-345.5351257324219	946.0152587890625	105.3895568847656	-384.5109558105469	467.2544250488281	86.84170532226562	-387.2934265136719	639.5410766601562	67.48286437988281	-786.7272338867188	178.1745758056641	96.83393859863281	-598.7643432617188	323.1815490722656	84.36857604980469	-665.8033447265625	34.91479110717773	191.8118591308594	-706.788330078125	97.23630523681641	211.979736328125	-726.2343139648438	74.48605346679688	110.7138137817383	-814.415283203125	250.3315277099609	135.0043334960938	-317.3615417480469	501.8272399902344	368.3772277832031	-359.7421569824219	786.0838623046875	432.4166259765625	-401.5958557128906	36.54232025146484	331.7637939453125	-311.0817260742188	355.5951232910156	347.6944885253906	-180.1849670410156	41.01446151733398	293.4918518066406	-243.2462158203125	41.10321426391602	250.8825073242188	-268.6919555664062	39.49371719360352	353.1812744140625	-454.6305847167969	31.09080696105957	274.375732421875	-332.5653381347656	727.3005981445312	3.607949256896973	
175	1.74	-544.290283203125	1005.759155273438	323.2215270996094	-542.8818359375	1003.288696289062	189.5114135742188	-535.3114624023438	1102.536987304688	248.4342498779297	-293.7422485351562	1281.07275390625	252.2618103027344	-538.7005615234375	1227.222045898438	246.73779296875	-480.9775085449219	1497.565185546875	272.7797241210938	-309.0909423828125	1392.884887695312	259.2222290039062	-557.4639282226562	1371.452758789062	351.1442260742188	-514.9667358398438	1451.214599609375	177.8766784667969	-414.0458984375	1480.1279296875	100.6696701049805	-430.1782531738281	1359.871337890625	12.26612567901611	-427.2289733886719	1139.703125	-19.85566520690918	-513.6148071289062	1132.482299804688	32.5744743347168	-331.3038940429688	897.8289184570312	14.37209606170654	-379.7622375488281	875.8155517578125	-56.12520980834961	-405.6529541015625	1054.357421875	-30.79311752319336	-368.8193359375	816.3985595703125	-49.49353408813477	-314.6354064941406	821.491455078125	-8.132022857666016	-425.7164916992188	1450.928588867188	425.832763671875	-448.7302856445312	1385.60400390625	491.1923217773438	-463.4981689453125	1096.815307617188	530.931884765625	-516.1392211914062	1078.789184570312	501.2589721679688	-325.189453125	878.94189453125	489.610595703125	-371.3788452148438	855.4312133789062	553.7142333984375	-451.8641357421875	1041.009643554688	537.6392822265625	-307.6623840332031	705.5928344726562	492.3383483886719	-295.1956481933594	788.0203857421875	502.7022705078125	-351.8850708007812	781.0546264648438	549.020751953125	-403.6341857910156	1667.162841796875	350.1107482910156	-249.1438446044922	1702.382568359375	215.8315582275391	-265.7190856933594	1692.059814453125	358.765380859375	-377.713134765625	1677.674438476562	186.7483520507812	-418.3513793945312	920.1988525390625	60.22880935668945	-413.8232421875	937.2413330078125	442.1326599121094	-330.4287109375	967.568359375	380.9841003417969	-338.5532836914062	947.377197265625	106.0916519165039	-367.3282165527344	468.8843994140625	86.33238983154297	-374.320556640625	641.1149291992188	67.33011627197266	-771.2518310546875	182.4282836914062	95.08382415771484	-581.8809204101562	325.6051940917969	83.30010223388672	-649.356689453125	37.06277084350586	186.0441741943359	-690.141357421875	99.5103759765625	208.0146026611328	-710.857421875	78.77228546142578	106.5971374511719	-798.453125	254.0719757080078	134.4322357177734	-314.6761169433594	501.2950744628906	368.7042236328125	-354.0515747070312	786.0435791015625	432.7967529296875	-401.6355590820312	36.5765380859375	331.776611328125	-309.370361328125	355.1086730957031	347.912109375	-180.2317199707031	40.97421264648438	293.427734375	-243.2332458496094	41.09945297241211	250.8357543945312	-268.7124328613281	39.5059700012207	353.1522521972656	-454.589111328125	31.02640914916992	274.2872619628906	-330.4761047363281	727.3141479492188	3.455034494400024	
